<?xml version="1.0" encoding="UTF-8"?>
<svg id="Layer_1" data-name="Layer 1" xmlns="http://www.w3.org/2000/svg" viewBox="0 0 24 24">
  <defs>
    <style>
      .cls-1 {
        fill: #000;
        stroke-width: 0px;
      }
    </style>
  </defs>
  <path class="cls-1" d="M13.12,22.92c0-.07.01-.13.02-.2,0,0,0,0,.01,0,.01.03.03.06.03.09,0,.03,0,.07-.01.1-.02.05,0,.08.04.11.05.05.09.1.14.15,0,0,0,0-.01.01-.05-.04-.1-.08-.16-.13,0,.13-.01.25-.02.37-.03-.06-.06-.13-.04-.2.02-.09.03-.17-.03-.25-.05.04-.06-.01-.07-.04-.03-.08-.05-.17-.06-.25-.01-.11-.01-.21-.01-.32,0-.08.02-.15.02-.23,0-.03,0-.05-.01-.08-.01-.04-.03-.08,0-.12,0,0,0-.02,0-.03-.02-.1-.04-.19-.03-.29,0-.21,0-.41-.05-.62-.04-.2-.08-.41-.09-.62-.02-.39-.06-.78-.05-1.17,0-.11.02-.22.02-.33,0-.18,0-.37-.05-.55-.08-.25-.27-.37-.5-.44-.16-.05-.32-.08-.49-.1-.23-.04-.47-.04-.7-.09-.13-.03-.26-.11-.38-.17-.31-.15-.61-.33-.88-.55-.19-.15-.37-.32-.54-.49-.42-.44-.73-.96-.99-1.5-.11-.24-.18-.49-.28-.74-.03-.09-.06-.18-.11-.26-.09-.16-.24-.23-.41-.27-.23-.05-.45-.04-.68-.03,0,0,0,0-.01,0-.31,0-.62,0-.93.01-.24,0-.48-.04-.71-.11-.17-.05-.35-.07-.53-.09-.2-.02-.4-.03-.6-.02-.21,0-.42.02-.64.04-.06,0-.11,0-.17,0-.09.01-.18.02-.26.06-.09.04-.18.03-.27.02-.06,0-.13,0-.2.01-.07,0-.13,0-.2,0,0,0-.01,0-.02,0-.1.02-.2.05-.3.07-.06,0-.11,0-.17,0-.11,0-.22-.02-.33,0-.04,0-.08,0-.12-.01-.05,0-.1-.02-.16,0-.02.01-.05,0-.07-.01.13-.03.26-.07.39-.02.03-.06.09-.07.13-.03.02.01.04.02.07.02.07,0,.14-.03.2-.03.14,0,.27-.03.4-.06.06-.01.12,0,.18,0,.09,0,.18-.02.26-.04.11-.02.21-.05.31-.08.05-.01.09-.03.14-.05.07-.02.15-.05.22-.06.11-.01.22,0,.33-.02.18-.02.36-.03.54-.06.27-.04.55-.09.82-.14.26-.04.53-.08.79-.11.2-.03.41-.05.61-.08.31-.04.63-.06.93-.15.06-.02.11-.04.17-.05.14-.04.2-.16.25-.28.09-.21.13-.44.18-.67.1-.54.22-1.08.44-1.59.09-.21.19-.42.29-.62.09-.18.21-.34.32-.51.03-.05.07-.11.09-.17.07-.17.2-.28.37-.33.27-.07.49-.23.72-.37.33-.2.66-.39,1.02-.54.12-.05.24-.08.36-.13.23-.09.34-.28.39-.51.03-.12.04-.24.04-.36-.01-.17-.05-.34-.09-.51-.03-.14-.07-.28-.11-.43-.03.03-.06.05-.08.07-.05.04-.08.13-.04.19.08.13.09.27.1.42,0,.09.02.17.01.26,0,.05-.04.1-.08.15,0-.01,0-.03,0-.04.02-.09.04-.17.04-.26,0-.16-.01-.31-.1-.45-.02-.04-.04-.08-.06-.12-.03-.08.02-.13.06-.19.03-.04.06-.08.08-.13.02-.04.01-.07-.04-.08-.2-.05-.24-.23-.15-.4,0,.16,0,.3.16.36.02-.05.05-.1.06-.16.01-.04.02-.08.02-.12,0-.13,0-.25,0-.38,0-.32.04-.65.11-.96.04-.17.06-.35.08-.52.01-.09.03-.17.03-.26,0-.06-.03-.11-.07-.16-.06-.09-.09-.18-.1-.28,0-.07,0-.14,0-.21.04.18.1.34.21.49.04-.06.03-.13.02-.2,0-.04,0-.08,0-.13.02-.05,0-.12,0-.18,0-.03,0-.05,0-.08.02.09.03.19.05.28.02.07.04.13.03.2,0,.06.04.11.09.14.02,0,.07,0,.08-.03.03-.04.06-.09.06-.15.02-.13.04-.26.04-.39,0-.2-.02-.4-.02-.6,0-.11.02-.22.02-.34,0-.13,0-.26-.01-.39,0-.03.02-.07.03-.09.02-.07.01-.15,0-.22,0-.05-.04-.1-.06-.15,0,0,.01,0,.02-.01.03.05.07.1.08.16.02.1.02.2.03.3,0,.05-.01.1-.01.15,0,.1.02.21.02.31,0,.03-.01.06,0,.09.01.17.03.34.03.51,0,.14,0,.27,0,.41,0,.14.02.28.04.41.01.11.03.21.03.32.02.24.03.49.05.73,0,.1,0,.2.01.3,0,.22.02.43.03.65.01.27.02.55.04.82.02.26.03.51.1.76.04.13.1.26.16.39.04.08.11.12.19.14.22.07.45.13.68.19.59.15,1.18.28,1.74.49.2.08.4.17.59.29.18.11.37.21.54.33.16.12.31.27.45.43.16.18.29.38.44.56.18.21.36.41.54.61.2.23.4.45.54.72.06.11.14.21.2.33.03.05.04.12.05.17,0,0-.01,0-.02,0,0-.02-.02-.03-.03-.05-.06-.15-.17-.25-.27-.37-.12-.15-.23-.3-.36-.42-.12-.11-.27-.2-.41-.3-.21-.14-.41-.28-.62-.43-.12-.09-.24-.2-.35-.3-.38-.36-.82-.63-1.32-.8-.43-.15-.86-.29-1.31-.39-.17-.04-.34-.07-.52-.05v.11s0,0-.01,0c0-.03-.01-.06-.02-.1-.13,0-.23.06-.31.17.04.05.08.1.12.15-.07,0-.09-.06-.13-.11,0,.02,0,.04,0,.05,0,.04.02.09.01.13-.03.2.08.5.25.56.08.03.17.05.25.08.1.04.21.08.31.11.11.04.23.04.35,0,.03-.01.07,0,.11,0,.16.03.32.06.47.1.04,0,.07.04.12.07-.02,0-.04.01-.07.02,0,.02,0,.04,0,.06-.02,0-.04-.01-.06-.02,0,.01,0,.03,0,.03-.1.05-.03.12-.02.19,0,.06.06.07.11.07.04,0,.09,0,.13,0-.02-.06-.04-.1-.07-.16-.03-.01-.06-.03-.09-.04,0,0,0-.01.01-.02.03.01.06.02.1.04-.01-.04-.02-.07-.03-.11,0-.02,0-.06,0-.06.02-.01.05,0,.08,0,0,0,0,.01,0,.02,0,0-.02.02-.02.03.03.01.06.02.09.03.03,0,.06,0,.09.02.05.02.07.07.06.12.04.01.08.03.13.03.19.04.32.18.47.27.07.04.14.08.2.12.04.02.06.05.1.08.23.21.45.43.63.69.1.14.19.29.28.43.09.15.17.3.27.44.05.07.13.12.19.18.07.07.11.16.11.27,0,.06-.02.12-.06.16-.03.03-.05.02-.06,0-.04-.06-.09-.11-.05-.2.04-.11,0-.17-.07-.22-.06-.03-.14-.02-.17.04-.03.06,0,.12.07.15.03.01.07.03.1.05-.03,0-.06,0-.09-.01-.06-.01-.11.03-.09.09.03.15.11.2.23.21.12,0,.22.06.3.14.07.07.16.08.25.09.24.05.49.07.74.08.26.01.51.03.77.05.19.01.38.03.57.04.22.01.45.03.67.04.19,0,.37.02.56.02.22,0,.45-.02.67-.02.17,0,.34.01.52.02,0,0,.01,0,.02,0,0,0,0,.01,0,.02-.08,0-.16.02-.24.03-.23.02-.45.03-.68.05-.13.01-.26.05-.39.07-.17.03-.33.05-.5.06-.35.02-.7.03-1.05.04-.27,0-.53-.02-.8,0-.18,0-.37.03-.55.06-.06.01-.12.06-.18.09-.09.05-.18.12-.28.16-.19.07-.3.18-.34.38-.09.48-.32.9-.59,1.29-.23.34-.48.66-.74.97-.17.21-.37.39-.58.56-.14.12-.29.2-.44.29-.09.06-.17.14-.26.2-.37.25-.77.41-1.2.52-.22.05-.43.13-.64.2-.21.07-.3.23-.34.43-.06.27-.09.53-.09.8,0,.22-.01.43-.02.65,0,.16-.02.31-.02.47,0,.3-.02.6-.02.9,0,.12.02.24.02.35,0,.04-.01.08-.01.12,0,.09.01.19.02.28,0,.07.02.14.03.22,0,.04.04.08.03.12,0,.07-.02.13-.03.2-.04.14-.06.29-.03.44,0,.05.02.09.03.14.01.04.03.08.08.04ZM10.69,16.64c-.04-.08-.11-.13-.18-.18,0,0,0,.01-.01.02.06.05.13.11.19.16.05.05.09.1.14.14.04.03.09.06.14.08,0,0,0,.02.01.02.07.05.13.1.2.15.07.04.14.08.2.11.1.07.2.16.32.21.14.06.28.09.43.12.12.03.24,0,.34-.09.1-.09.13-.2.13-.33,0-.11.01-.22.03-.33.02-.19.04-.38-.04-.56-.06-.14-.15-.23-.28-.28-.04-.01-.08-.02-.13-.03.08.04.15.06.2.11.11.08.18.18.19.32,0,.06,0,.12.01.18,0,.09.01.17.01.26,0,.08-.02.16-.02.24,0,.12-.03.23-.1.33-.06.09-.14.15-.25.13-.1-.02-.21-.03-.31-.05-.09-.01-.17-.04-.25-.09-.09-.06-.19-.1-.28-.14-.04-.07-.12-.09-.19-.13-.08-.05-.15-.1-.23-.15-.05-.04-.1-.08-.15-.12-.04-.03-.08-.06-.12-.1ZM15.29,11.42s0,.02,0,.02c.03.04.07.09.1.13,0,0,.02,0,.03,0,0,0,0,0,0,0-.04-.05-.08-.1-.13-.15-.03-.03-.05-.06-.08-.09-.06-.06-.12-.13-.18-.19,0,0-.01.01-.02.02.06.07.11.14.17.2.03.03.07.05.11.07ZM13.13,13.83s-.07.09-.07.16c0,.06,0,.13,0,.19,0,.03,0,.06.01.08,0,0,0,0,0,0,.01-.14.03-.29.04-.43.08-.08.16-.17.23-.25-.1,0-.23.13-.23.25ZM13.67,9.06s0-.02-.01-.02c-.21-.1-.27-.44-.24-.63,0-.04,0-.06-.04-.09-.01.03-.02.05-.03.07-.01.12.02.23.04.35.03.16.12.27.27.32.04.02.07.04.11.05.07.02.15.04.22.06.07.03.14.07.21.1.12.06.24.05.36.05.1,0,.21-.02.31-.03.05,0,.09,0,.14,0-.07-.02-.13-.03-.2-.04-.11-.01-.21-.03-.31,0-.04.01-.09.01-.13,0-.07-.02-.14-.04-.21-.07-.17-.05-.33-.09-.5-.14ZM11.76,12.52c-.08-.06-.16-.12-.24-.19.02.05.05.1.08.13.04.04.09.07.15.05.04.02.08.05.12.05.06,0,.12,0,.17,0,.08,0,.14-.03.19-.08.09-.09.14-.2.16-.33.02-.12.05-.24.02-.36-.03-.11-.08-.21-.18-.27-.12-.06-.24-.11-.38-.07-.09.03-.14.08-.21.14.05-.01.09-.03.13-.06.02-.01.04-.03.07-.04.07-.04.14,0,.21,0,.17.02.26.1.31.26.06.23.03.44-.08.64-.05.08-.13.14-.23.13-.1,0-.2.02-.3-.03ZM14.57,12.21s-.08.08-.12.12c-.1.14-.25.17-.41.17-.09,0-.17-.01-.26,0-.09,0-.16-.02-.23-.06-.02-.01-.04-.02-.07-.03-.14-.05-.17-.13-.15-.28.01-.06,0-.12,0-.19,0-.04,0-.08.02-.12.01-.05.03-.1.04-.14.02-.05.02-.11.06-.14.08-.08.17-.16.3-.15.06,0,.12,0,.19.01-.13-.04-.26-.1-.39,0,0,0-.02,0-.03.01-.07.01-.09.06-.12.12-.05.09-.06.2-.08.3-.01.06-.02.13-.02.19,0,.07.01.14,0,.21,0,.06.02.12.07.16.08.08.19.1.3.12.09.01.18.02.27.02.07,0,.15,0,.22,0,.19-.03.34-.12.41-.31.02-.04.07-.08.06-.11-.02-.12-.06-.23-.14-.32-.09-.1-.18-.19-.29-.27-.06-.05-.14-.08-.21-.11.06.05.12.09.18.13.1.09.21.18.3.28.04.05.06.12.1.17.03.04.04.08.02.14-.01.03-.01.06-.02.1ZM15.92,14.33c.08-.15.17-.29.22-.46,0-.02.05-.03.07-.04.04,0,.08,0,.11-.01.02,0,.04-.02.04-.03,0-.08,0-.16-.06-.22-.06.03-.09.03-.13-.03-.01-.01-.03-.04-.04-.03-.06.01-.14.02-.18.05-.07.05-.12.13-.16.2-.05.08-.08.17-.11.26-.05.16-.16.27-.27.39-.06.07-.12.14-.18.21-.1.12-.2.24-.32.34-.09.08-.19.15-.29.22-.13.09-.26.18-.4.26-.11.07-.23.12-.34.18-.05.02-.11.04-.16.06-.04.01-.07.02-.11.02-.07,0-.14.02-.19.08-.05.07-.09.14-.14.21-.02.04-.04.08-.06.12-.02.08-.03.17-.05.25-.03.09.04.15.04.24.05-.05.09-.08.13-.12,0,0,.01,0,.02.01-.02.02-.03.06-.05.07-.08.05-.08.12-.08.2,0,.12.11.18.17.26,0,0,.04,0,.06,0,.04-.01.07-.03.11-.04.03,0,.06,0,.09-.02.13-.07.26-.14.38-.24.1-.08.21-.16.31-.24.13-.1.25-.19.38-.28.1-.08.21-.15.3-.23.11-.1.2-.2.3-.31.05-.05.11-.1.15-.15.07-.09.13-.19.21-.29.05-.06.11-.12.16-.18.02-.02.03-.05.04-.07.05-.07.11-.13.15-.21.09-.18.16-.37.26-.54.07-.12.08-.24.09-.37,0-.04-.02-.05-.05-.04-.04,0-.09.01-.13.02-.11.15-.15.33-.28.47ZM12.05,10.52h-.02c.02-.06.04-.11.07-.16.05-.08.05-.16.02-.24-.04-.13-.09-.16-.23-.13-.04,0-.09.01-.13.01-.14,0-.28.03-.41.08-.07.03-.14.06-.21.07-.11,0-.19.06-.26.14-.04.05-.09.09-.13.13-.03.02-.06.04-.09.07-.06.06-.12.12-.18.18-.02.02-.05.03-.07.06-.07.11-.14.23-.19.35-.05.12-.09.24-.13.36,0,.02-.01.04-.02.06-.04.06-.08.12-.12.18-.05.07-.08.16-.19.17-.15.02-.15.03-.18.17.02,0,.04.02.08.03-.04.01-.07.02-.1.03,0,0,0,.01,0,.02h.14s-.01-.05-.02-.08c.02-.01.05-.02.07-.03.04-.02.06,0,.06.03,0,.07.05.1.11.09,0,0,0,0,0,.02,0,0-.02,0-.03,0-.06.01-.12-.03-.18,0-.01,0-.04-.02-.07-.02-.02,0-.05,0-.06.01-.02.02,0,.13.02.15.13.11.29.17.45.19.11.01.12-.01.14-.12,0,0,0-.01,0-.02,0,0,.01,0,.02,0-.01.05-.03.1-.04.14.04,0,.09.03.14.03.1,0,.18-.03.25-.09.09-.08.16-.18.17-.3.01-.11.01-.21.01-.32,0-.14.06-.23.19-.3.14-.07.26-.16.4-.24.05-.03.1-.04.16-.05.04-.01.09,0,.14-.02.08-.03.16-.07.25-.11.06-.03.13-.04.19-.08.09-.06.13-.15.13-.26,0-.12-.01-.23-.02-.35,0-.02-.02-.03-.03-.06-.04.07-.08.13-.11.19ZM12.37,14.43c.05,0,.09,0,.12.01,0-.13,0-.25-.07-.36-.02-.03-.04-.05-.05-.08-.06-.13-.16-.17-.27-.17-.05.05-.08.1-.12.12-.04.01-.1-.07-.09-.11-.06-.03-.12-.05-.17-.07-.02,0-.03-.02-.05-.03-.1-.01-.2-.03-.3-.04-.09-.01-.18-.02-.27-.03-.02,0-.04,0-.05,0-.05,0-.09.01-.14.02-.05,0-.11.01-.16.02.01.04.1.06.02.11-.02-.08-.06-.12-.14-.12-.01,0-.02,0-.04,0-.12,0-.24,0-.35,0-.12,0-.23.12-.22.24.03,0,.06,0,.1.01-.03.01-.04.02-.05.02-.08,0-.06.05-.04.08.03.07.05.15.12.21.12.12.23.24.35.36.07.07.15.12.22.19.13.12.28.2.44.26.23.09.47.15.71.23.06.02.13.02.19.03.01-.06-.04-.11.02-.16.01.03.02.06.03.08,0,.02.02.05.04.05.04,0,.08,0,.12,0,.16-.05.22-.26.13-.39-.03,0-.06-.01-.08-.01.02-.02.04-.04.07-.06v-.11c-.05.02-.09.03-.13.04,0,0,0,0-.01-.01,0-.01.02-.03.03-.04.1-.01.14-.09.18-.16-.03-.04-.06-.08-.1-.13ZM12.46,16.95s0-.06.01-.08c0-.15,0-.3.02-.44.02-.1.02-.21-.06-.29-.08-.08-.16-.16-.27-.2-.21-.08-.41-.14-.63-.16-.16-.01-.31-.06-.46-.13-.13-.07-.26-.15-.38-.22-.14-.08-.29-.09-.44-.1,0,.11.12.12.16.21-.1,0-.13-.09-.18-.14-.05-.06-.15-.06-.19.01,0,.02-.03.03-.04.04-.04.04-.03.11.01.14.08-.04.1-.03.12.02-.04,0-.07,0-.1,0,0,.02,0,.04,0,.06.01.03.02.08.05.1.07.05.12.11.17.18.02.03.05.06.08.09.11.1.22.19.32.29.06.05.1.12.16.18.04.04.1.06.16.09.13.07.22.18.32.28.08.07.17.12.28.15.08.02.17.04.24.09.11.06.22.12.36.14,0-.04-.04-.09.02-.13.01.05.02.1.04.15.04-.01.08-.02.11-.03.1-.02.11-.11.13-.19.01-.05-.05-.05-.07-.08-.02-.02-.04-.04-.07-.06-.02-.02-.05-.04-.08-.05-.02-.02-.05-.03-.07-.05,0,0,.01-.02.02-.02.09.05.17.1.27.16ZM11.98,8.35s.04-.05.05-.08c0-.01.02-.03.02-.05,0-.13-.05-.16-.17-.17-.15-.02-.29.02-.42.08-.06.03-.12.05-.19.04-.07,0-.14,0-.21,0,.06.02.13,0,.19.04-.02,0-.04,0-.06,0-.07.01-.16.01-.22.04-.06.03-.11.1-.16.15-.04.04-.09.09-.14.13-.14.11-.3.19-.38.36-.01.03-.04.06-.03.08,0,.02.04.04.07.05,0,0,0,0,0,.01-.03-.01-.06-.02-.09-.03.03.07-.05.14.01.21.02.03.05.07.07.07.04,0,.1,0,.11-.07,0-.03.02-.06.04-.09.01-.02.03-.03.05-.04.04-.01.09-.01.13-.02,0,0,0,0,0,.01-.03.01-.07.03-.1.04-.03.01-.06.03-.07.05-.03.04-.04.09-.06.13,0,.01-.01.03-.02.04.02,0,.03.02.05.02.14-.02.26-.05.38-.15.1-.09.22-.15.38-.14.08,0,.16-.02.24-.03.08-.01.16-.03.23-.05.08-.03.17-.06.24-.11.06-.04.12-.09.15-.15.04-.08.05-.18.07-.27,0-.05.02-.09,0-.14,0-.05-.04-.09-.06-.13,0,.07-.03.13-.11.16ZM15.92,11.61s0,0,.01,0c-.01-.03-.04-.05-.04-.08,0-.09-.05-.17-.1-.23-.03-.03-.07-.07-.08-.11-.03-.11-.11-.19-.19-.27-.17-.19-.36-.36-.57-.51-.07-.05-.14-.1-.21-.15-.14-.09-.29-.18-.44-.26-.01,0-.02-.01-.03-.01-.07,0-.16,0-.22.02-.07.03-.11,0-.15-.03-.04-.04-.08-.07-.14-.03-.05.03-.11.08-.11.14,0,.07.02.12.09.15.01,0,.03.01.04.02,0,0,0,0,0,.01-.05-.01-.1-.02-.15-.03,0,.11,0,.22.06.32,0,.01,0,.03,0,.05,0,.03,0,.06,0,.1.01.08.02.17.09.22.1.07.19.14.3.2.1.06.21.12.31.18.09.05.19.09.3.06-.04-.06-.07-.12-.11-.18-.03-.04-.06-.08-.1-.1-.08-.05-.17-.1-.26-.15-.06-.04-.12-.1-.19-.11-.11-.02-.2-.07-.28-.14-.04-.03-.03-.06.02-.08.04-.01.07-.03.11-.04.05-.02.1-.04.15-.05.13-.02.25.06.36.1.14.05.28.12.4.22.11.1.22.19.32.29.06.06.12.13.18.2.1.12.2.25.3.37.06.07.12.14.19.19.02.02.06,0,.09,0,0-.02-.02-.04-.03-.06-.01-.02-.03-.04-.04-.05-.05-.07-.09-.15-.14-.22-.08-.12-.18-.23-.26-.34-.02-.03-.04-.06-.06-.09,0,0,0,0,.01-.01.06.06.11.12.17.18,0,0,.01,0,.02-.01-.1-.14-.2-.27-.29-.41,0,0,0,0,.01,0,.22.25.44.49.66.74ZM13.5,14.7s0,0,.01,0c0,.03,0,.06-.02.1.05,0,.11.02.16.01.15-.02.28-.11.4-.2.11-.07.19-.18.3-.25.16-.1.22-.25.25-.41-.05,0-.1-.01-.14-.02,0,0,0-.02,0-.03.04,0,.09,0,.13-.01,0,0,0-.02,0-.03.02-.07.01-.12-.05-.18-.06-.06-.13-.05-.2-.06-.12-.01-.17.02-.22.13,0,.02-.02.03-.03.05-.04-.08-.02-.14.06-.19-.04,0-.06,0-.09,0-.11,0-.22.03-.32,0-.11-.02-.2.01-.3.04-.04.01-.08.04-.12.05-.07.01-.14.06-.15.12-.02.08-.05.17-.01.25.02.05.03.1.1.07.02,0,.04.01.06.02,0,.03-.03.06-.02.08.02.07-.02.12-.05.16-.02.03-.05.06-.06.1-.04.08,0,.16.04.23.04.07.08.09.16.07.02,0,.04-.01.05-.01.01-.04.02-.07.03-.11ZM10.45,10.27s-.04.05-.06.07c-.05.04-.1.08-.13.14-.03.07-.07.13-.1.2-.05.11-.11.23-.16.34,0,.02,0,.05,0,.06.02.05,0,.09-.02.13-.06.09-.1.19-.08.32.02-.01.04-.02.04-.03.03-.1.06-.21.09-.31.02-.07.06-.14.09-.2.01-.03.04-.05.05-.08.05-.09.09-.18.16-.26.07-.07.13-.16.2-.24.02-.03.05-.05.08-.08.03-.03.05-.06.08-.09-.05,0-.08,0-.12-.01,0,0,0-.01,0-.02.02,0,.03,0,.05,0,0-.06.07-.1.04-.16-.08,0-.15,0-.23.01,0,.02,0,.04,0,.08,0-.03-.02-.05-.02-.06-.03,0-.05,0-.08,0-.03,0-.07,0-.1.02-.05.02-.09.05-.13.08-.02.02-.03.05-.05.08-.03.05-.05.12-.09.16-.07.08-.12.17-.15.27-.04.14-.07.28-.11.41-.03.09-.05.19-.02.28.01,0,.03-.01.04-.02-.02.03-.05.05-.07.07-.02.03-.05.07-.04.09.02.04.06.08.11.09.06.02.13,0,.16-.04,0-.08-.03-.15-.02-.21.01-.07.06-.13.08-.2,0-.03.01-.06.01-.08,0-.04-.02-.09,0-.12.02-.07.05-.13.08-.19.04-.08.09-.17.15-.25.05-.07.08-.16.16-.2.03-.02.05-.03.08-.05.04-.02.07-.04.11-.06,0,0,0,.01,0,.02-.03.01-.06.02-.08.03ZM14.41,12.01c-.03-.06-.05-.11-.08-.15-.07-.07-.15-.14-.23-.21-.09-.07-.18-.14-.3-.11,0,.03-.01.06-.02.09h-.02v-.1c-.07.02-.14.05-.2.07,0,0-.01.02-.01.02-.02.06-.04.12-.06.18-.03.1-.02.11.05.16,0,0,0,0,0,.01-.02,0-.04.01-.06.03-.05.05-.05.19,0,.24.08.09.18.08.29.08.04,0,.08,0,.13,0,.03,0,.07,0,.12,0-.08-.09-.12-.17-.12-.27.01,0,.02.02.03.03.06.1.14.19.26.24.01,0,.03.01.04,0,.1-.04.19-.1.21-.22,0-.04-.01-.07-.04-.07-.05,0-.1,0-.16.01,0,0,0-.01,0-.02.05,0,.11-.02.19-.03ZM12.25,11.99c-.05,0-.08.01-.11.02,0,0-.01-.02-.02-.03.02-.01.04-.02.05-.03.1-.09.07-.22-.06-.26-.02,0-.05,0-.07-.01-.04,0-.08,0-.14,0-.18.03-.28.15-.26.36.01,0,.02,0,.05.01-.03.02-.06.04-.08.05.02.04.03.08.05.12.02.05.03.1.07.14.05.06.13.06.18,0,0,0,.02-.01.03-.02,0,.02,0,.06.01.06.04,0,.09.01.13,0,.08-.04.11-.12.14-.2.02-.06.02-.13.04-.2ZM15.15,13.75s-.01,0-.02,0c0-.03,0-.06,0-.09-.01,0-.02-.01-.03-.01-.04,0-.07,0-.11.01-.13.01-.16.05-.19.18,0,.04-.01.09-.03.13-.03.09-.03.1.06.09,0,0,0,0,.02,0-.11.02-.1.09-.08.16.05.02.11.05.16.07.04.01.08,0,.08-.05,0-.06.03-.09.07-.11,0,.01-.01.02-.02.03-.01.03-.02.07.02.09.05.02.14,0,.18-.04.02-.03.05-.05.07-.07.01-.02.03-.04.04-.06,0-.04.02-.09,0-.12-.02-.04.03-.06.03-.09,0-.07-.03-.13-.08-.17-.08-.07-.16-.05-.17.05ZM11.22,9.14c-.1.07-.19.14-.28.2-.1.07-.1.15,0,.23h-.09c0,.06-.05.13.03.18,0,0,0,.01,0,.02-.01.04.02.04.04.04.06,0,.1-.04.13-.08.03-.04.04-.1.06-.15-.02,0-.04,0-.05-.01,0,0,0,0,0-.01.03,0,.05,0,.08-.01-.01-.02-.02-.02-.03-.04.06-.03.11-.06.17-.09,0,0,0,0,.01.01-.01.01-.02.03-.03.04-.05.05-.1.1-.14.15-.02.03-.03.07-.04.11-.01.04-.03.07-.05.11.12,0,.22-.05.29-.13.07-.08.13-.15.21-.23.06-.06.07-.13.01-.21,0,.14-.13.09-.2.13v-.02s.1-.03.15-.04c.03-.07.02-.16-.02-.17-.05-.03-.15,0-.18.05-.02-.02-.05-.05-.08-.08ZM9.3,9.06c.04.05.06.06.15.01.05-.03.1-.08.14-.11.02.1-.09.13-.14.22.14.05.28.05.39-.03.16-.11.16-.35.01-.4,0,.07-.04.09-.17.12.01-.01.03-.03.05-.04.02-.01.05-.01.06-.03.01-.02.02-.07.01-.08-.05-.05-.23-.08-.29-.04-.06.04-.12.09-.18.13,0,0,0,0,0,.01.02,0,.03,0,.04,0,0,0,0,.01.01.02-.07,0-.06.03-.06.07,0,.04-.02.09-.03.14ZM14.06,10.79c.05.03.09.06.14.08.11.06.2.16.33.19.02,0,.03.03.04.04.05.07.09.14.13.2.01.02.05.04.06.03.03-.01.07-.04.08-.06.01-.06,0-.12,0-.17-.06,0-.14.02-.21,0,0,0,0-.01,0-.02.05,0,.09,0,.16.01-.02-.04-.03-.07-.05-.09-.04-.03-.08-.07-.12-.09-.09-.04-.18-.08-.27-.12-.06-.03-.12-.06-.19-.09,0,.07-.02.1-.1.09ZM10.11,14.46s.02.03.02.03c.13.13.25.25.38.38.05.05.09.1.15.13.24.15.49.28.76.36.16.05.32.08.48.12.05.01.11.03.17.02.09,0,.17-.03.26-.05.11-.02.18-.08.22-.17,0-.01,0-.03,0-.04-.02,0-.04,0-.05,0-.04.04-.08.08-.12.11-.02.02-.03.03-.05.04-.16.06-.33.07-.49.03-.16-.04-.32-.09-.48-.15-.2-.08-.4-.17-.59-.27-.13-.07-.24-.16-.35-.25-.11-.09-.21-.2-.32-.31ZM18.25,12.95c-.07-.11-.11-.13-.16-.12-.06.02-.12.05-.14.12-.01.05.04.13.08.15-.08.04-.14.11-.09.18.04.06.12.12.15.09.03-.03.06-.06.08-.1.03-.07-.06-.08-.08-.13.06-.01.07-.05.08-.09,0-.02,0-.04.02-.06.01-.02.03-.02.05-.04ZM15.88,9.66s0,0,0,0c.07.05.14.09.21.14.22.17.44.34.65.52.1.09.2.18.28.28.16.22.31.44.46.67.02.03.03.06.05.09.02.03.04.05.06.07h.02c-.05-.09-.09-.16-.14-.23-.13-.18-.23-.37-.36-.54-.17-.21-.34-.4-.55-.58-.04-.03-.08-.07-.12-.1-.14-.09-.29-.18-.43-.27-.04-.02-.08-.04-.13-.06ZM11.87,11.16s0,.01,0,.02c.02,0,.04,0,.05,0,.06-.02.12-.03.18-.05.09-.03.16-.09.19-.19.03-.09.03-.18.03-.28,0-.12.01-.25,0-.37,0-.16-.07-.31-.16-.44-.04-.05-.08-.09-.15-.05,0,0-.02,0-.04,0-.07-.01-.1.03-.13.08.03.03.06.05.1.01,0-.01.03-.01.05-.01.08,0,.15.03.19.12.05.11.11.22.1.35,0,.06,0,.12,0,.17.03.13.03.26,0,.39-.03.1-.09.18-.21.2-.07.01-.14.05-.2.08ZM14.86,16.36s-.05.03-.08.05c-.18.11-.35.23-.5.37-.06.06-.14.1-.2.14-.06.04-.12.08-.19.12-.08.05-.15.1-.23.14-.01,0-.04.01-.05,0-.06,0-.11-.01-.17-.01-.11,0-.18-.05-.23-.15,0-.01-.01-.02-.02-.04,0-.01-.02-.02-.03-.03.03.08.06.17.14.2.07.03.15.04.23.06.02,0,.05.01.08,0,.13-.03.24-.09.34-.17.17-.15.37-.25.56-.37.14-.09.27-.19.37-.33ZM9.37,11.96s.01,0,.02,0c0-.03,0-.05.01-.08,0-.03,0-.07,0-.1.02-.07.05-.14.05-.22.02-.16.02-.33.08-.49.03-.1.05-.2.08-.3.03-.09.06-.19.1-.28.03-.07.08-.14.12-.21.08-.12.15-.26.31-.29,0,0,.01,0,.02,0,.04-.05.08-.07.14-.06.02,0,.04-.01.07-.02-.08,0-.17,0-.24.02-.08.03-.15.09-.22.15-.13.13-.19.3-.27.46-.05.1-.08.2-.11.31-.03.1-.06.2-.08.31-.02.12-.03.24-.05.35-.02.1-.03.2-.05.3,0,.05,0,.1,0,.14ZM12.43,5.62s0-.04,0-.06c0-.03-.02-.06-.03-.07-.02,0-.07,0-.08.02-.06.06-.12.12-.17.19-.04.05-.02.12.03.16.05.04.12.04.17,0,.07-.06.08-.14.08-.23ZM12.02,7.88s.02.05.03.07c.01.02.03.05.05.06.05.02.07.06.08.11.01.1.04.2.05.31,0,.06,0,.13-.02.17-.05.1-.12.2-.19.29-.03.05-.08.07-.15.08-.07,0-.13.04-.2.06.12.02.23-.02.33-.08.07-.05.15-.08.18-.17.02-.07.06-.14.08-.21.01-.08.01-.16,0-.24,0-.07-.03-.14-.03-.21,0-.12-.09-.21-.22-.22ZM10.9,13.56s0,0,0-.01c-.22,0-.44,0-.66,0-.15,0-.27.06-.36.19-.07.09-.02.19-.03.28,0-.02.01-.03.02-.05.02-.12.09-.21.19-.28.12-.09.26-.08.4-.09.13-.01.26,0,.39-.01.02,0,.04,0,.06-.01ZM11.03,13.54s0,.02,0,.03c.03.01.07.03.1.03.08.01.17.01.25.03.15.03.31.04.44.13.03.02.06.02.1-.01.03-.03.07-.05.12-.03.04.01.09,0,.14,0-.02-.02-.04-.03-.07-.03-.04,0-.08.01-.11,0-.13-.01-.27-.02-.4-.06-.11-.03-.22-.07-.33-.09-.08,0-.16-.01-.23-.02ZM13.12,16.94s.02,0,.02,0c0-.07,0-.14,0-.2,0-.09-.03-.18-.03-.28-.01-.15.04-.29.07-.43.01-.04.04-.09.06-.12.06-.08.12-.15.19-.23-.05.03-.09.04-.11.07-.06.09-.15.16-.18.26-.02.08-.06.16-.06.24,0,.16,0,.32.01.49,0,.07.02.14.02.2ZM13.35,15.02s.11.06.18.04c.14-.05.29-.09.43-.15.06-.02.11-.05.16-.09.08-.06.15-.12.23-.18.06-.06.12-.12.19-.18-.09.05-.17.11-.25.18-.05.04-.09.08-.14.11-.18.12-.38.18-.58.24-.07.02-.16.02-.23.02ZM12.65,15.07s0-.06,0-.09c0,0,.02,0,.02,0,.01.03.02.07.03.11.03-.02.06-.03.08-.05.03-.02.06-.03.09-.05,0,0,.02-.03.01-.04-.01-.06-.14-.09-.18-.06-.04.03-.07.05-.12.03-.02,0-.05.01-.07.03-.01,0-.02.05,0,.05.04.04.07.09.14.07ZM14.79,14.98v-.02s-.04.02-.05.02c-.09.07-.18.15-.28.21-.21.12-.41.26-.65.35-.08.03-.16.06-.25.06-.04,0-.09.03-.13.04,0,0,0,.01,0,.02.53-.06.94-.38,1.34-.68ZM12.56,14.51s.02,0,.02.01c0-.02.03-.03.03-.05,0-.07,0-.13-.02-.19-.04-.13-.08-.26-.13-.39-.04-.11-.13-.17-.25-.18.14.09.13.1.2.23.09.18.17.35.15.56ZM15.45,10.67s.01-.02.02-.03c-.04-.04-.09-.08-.13-.11-.08-.07-.17-.13-.25-.2-.1-.1-.22-.18-.34-.26-.07-.05-.15-.09-.23-.13-.04-.03-.09-.05-.13-.08,0,0-.01.01-.02.02.02.02.04.04.06.06.08.05.16.09.24.14.1.06.21.13.3.2.16.13.31.26.47.4ZM10.92,11.63s-.02.03-.02.05c-.01.07-.02.14-.03.22-.02.17-.04.35-.13.5-.04.07-.09.14-.18.16-.04.01-.08.03-.12.04.17.01.36-.13.4-.29.02-.08.03-.16.05-.24.01-.08.03-.16.04-.24,0-.06,0-.13,0-.19ZM12.67,14.62c-.02.07,0,.12.03.17.02.03.04.05.07.05.02,0,.05.01.07,0,.02,0,.05-.03.05-.03-.03-.06-.05-.12-.1-.17-.02-.03-.08-.02-.13-.03ZM10.34,12.6s-.1-.08-.14,0c-.07-.02-.14-.04-.21-.06-.06-.02-.13-.02-.2-.03-.04,0-.07-.02-.1-.03,0,0,0,.01,0,.02.19.18.43.12.65.12ZM12.63,14.62c-.09-.01-.1,0-.12.08-.02.08-.01.1.06.15.02.01.04.04.07.06,0-.02.03-.04.03-.06,0-.08-.02-.15-.03-.23ZM16.23,13.55s.02,0,.02,0c0-.02,0-.04-.01-.06,0-.02-.03-.03-.03-.04-.02-.07-.06-.07-.11-.06-.19.05-.32.17-.38.35-.02.06-.04.11-.06.17,0,0,0,0,.01,0,0,0,.01-.01.02-.02,0-.01.01-.02.02-.03.01-.11.09-.19.14-.28.07-.11.18-.12.29-.14.04,0,.08.02.09.08,0,.01,0,.03,0,.04ZM14,9.81s-.02-.05-.02-.08c-.01-.07-.04-.09-.11-.09-.03,0-.06,0-.06.05,0,.04-.03.07.02.11.06.04.11.05.18.02ZM14.51,13.53c-.34-.09-.67-.08-1,.02.33-.06.67-.07,1-.02ZM11.52,9.8s.04-.05.01-.19c-.02.02-.05.04-.05.06,0,.05-.03.08-.07.11-.02.02-.03.06-.03.09,0,0,.03.03.05.03.04,0,.08-.01.13-.02-.01-.03-.03-.05-.04-.08ZM15.95,8.47s0,0,0,0c-.06-.03-.11-.08-.18-.1-.14-.02-.27-.09-.4-.14-.08-.03-.15-.04-.23-.03.27.09.54.18.81.27ZM15.52,9.65c.07-.02.13-.09.12-.13,0-.03-.04-.06-.06-.07-.03,0-.08-.02-.11.03-.03.07.02.12.05.18ZM9.38,12c-.08.26.02.36.22.42-.03-.05-.06-.1-.11-.12-.03-.01-.05-.02-.06-.05-.02-.08-.04-.16-.05-.24ZM14,7.94h0c.07.02.15.02.22.03.22.05.44.1.67.16.06.02.13.03.19.05,0,0,0-.01,0-.02-.02,0-.03,0-.05-.01-.1-.03-.21-.07-.31-.1-.11-.03-.22-.06-.32-.07-.13-.02-.26-.02-.39-.04ZM11.12,11.53c.07.01.13-.03.18-.06.07-.04.13-.1.2-.14.05-.02.11-.03.16-.04,0,0,0-.01,0-.02-.08.01-.17,0-.23.04-.11.06-.21.14-.31.22ZM9.89,15.59s-.01.02-.01.03c.03.14.05.3.21.37-.06-.13-.13-.26-.2-.4ZM11.58,9.84s.01.01.02.02c.08-.02.18.01.2-.11-.01-.02-.03-.04-.05-.08-.06.06-.11.11-.16.16ZM14.6,11.51c-.12-.04-.24-.06-.35-.11-.11-.05-.22-.12-.33-.18.2.16.4.3.67.29ZM15.8,15.42c.15-.15.27-.32.34-.53-.11.18-.22.35-.34.53ZM13.3,15.02s0,0,0-.01c-.14-.11-.17-.15-.18-.27,0-.07-.02-.15-.03-.21,0,.06-.02.14-.03.21,0,.01,0,.03,0,.04.04.06.09.13.14.18.02.02.06.03.09.05ZM17.07,9.18c.13.1.22.23.37.27-.11-.1-.2-.23-.37-.27ZM11.74,9.66c-.04-.06-.08-.11-.17-.07,0,.04,0,.11.03.12.05.03.09-.03.14-.06ZM14.2,9.79s-.08.02-.1.04c-.02.02-.02.06-.02.09,0,0,.02.02.03.02.09,0,.13-.07.09-.16ZM15.24,13.55c-.15-.1-.42-.03-.44.1.12-.13.28-.11.44-.1ZM13.56,10.57s-.01,0-.02,0c0,.02,0,.05.01.07,0,.04.02.08.01.12-.02.08,0,.15.04.21.04.06.08.13.19.13-.03-.02-.04-.02-.06-.04-.07-.05-.14-.11-.14-.21,0-.05,0-.1-.01-.16,0-.04-.01-.09-.02-.13ZM15.16,9.65c0-.05,0-.1,0-.13,0-.04.04-.07.05-.11.03-.07.02-.09-.05-.11-.03,0-.06,0-.11,0,.1.03.14.08.09.17-.03.05-.04.12.01.19ZM15.29,14.45c-.14.15-.27.3-.41.45.17-.12.29-.28.41-.45ZM17.85,12.39c-.1,0-.19-.03-.22-.13-.02-.06-.02-.13-.03-.2,0-.02-.01-.04-.02-.06,0,0-.02,0-.03,0,.02.08.02.17.05.24.08.17.08.19.25.14ZM13.62,9.8s-.08.05-.09.08c-.04.1-.07.2-.06.32.02-.17.09-.3.16-.32,0-.02,0-.04,0-.08ZM12.98,15.04c.05-.12.02-.39-.05-.44.01.06.05.12.04.18-.02.09,0,.17,0,.25ZM13.21,14.27c.02.06-.04.12.02.19.02-.03.03-.05.05-.06.06-.07.04-.11-.07-.13ZM13.14,14.56s.01,0,.02,0c0-.17.04-.34-.02-.51v.51ZM11.53,15.7s0,.01,0,.02c.2.04.39.09.59.13,0,0,0-.01,0-.02-.19-.04-.39-.09-.58-.13ZM13.66,10.84c0,.1.18.26.34.3-.03-.02-.05-.05-.09-.07-.1-.05-.19-.11-.25-.24ZM15.43,9.77s0,0,0,0c.05-.02.12-.02.16-.05.06-.06.12-.09.21-.08-.08-.05-.08-.05-.15,0-.07.05-.15.08-.22.13ZM11.96,7.85c-.14-.04-.28.01-.44.07.16-.03.3-.05.44-.07ZM11.31,8.03s0-.01,0-.02c-.09-.03-.36.03-.41.08.07-.01.16-.03.25-.05.05,0,.11,0,.17-.01ZM16.31,14.59c.1-.14.16-.29.19-.45-.06.15-.13.3-.19.45ZM10.01,15.29c.08.02.14-.01.18-.08-.08-.02-.13.02-.18.08ZM13.93,9.49c-.11-.07-.21-.02-.23.13.03-.03.04-.07.07-.09.02-.02.05-.04.07-.05.02,0,.05,0,.09,0ZM15.5,15.78s.01.01.02.02c.07-.08.13-.16.2-.24,0,0-.01,0-.02-.01-.07.08-.13.16-.2.23ZM11.51,11.86c.04-.07.08-.15.12-.23-.1.05-.12.14-.12.23ZM15.95,11.33s.01,0,.02-.01c-.06-.08-.12-.16-.18-.24,0,0-.01,0-.02.01.06.08.12.16.18.24ZM15.76,11.95c.07.06.19.08.24.04-.08-.01-.16-.03-.24-.04ZM14.63,13.71c.1.05.01.14.04.21.06-.1.04-.2-.04-.21ZM14.07,9.8s.08-.03.06-.08c0-.02-.05-.02-.09-.03.01.05.02.07.03.1ZM14.16,12.43s0-.02,0-.03c-.08,0-.16.01-.24.02,0,0,0,0,0,0h.25ZM13.95,10.73c-.02-.07-.07-.06-.13-.08.02.06.07.09.13.08ZM17.93,12.06c-.05.03-.05.05.03.13.05-.06-.02-.08-.03-.13ZM10.92,9.99s-.08-.02-.12-.03c.01.04.02.07.03.1.03-.02.06-.05.09-.08ZM15.36,13.58c.05.06.09.11.14.17,0-.08-.07-.16-.14-.17ZM10.3,9.45s.01-.01.02-.02c-.06-.05-.12-.1-.18-.16,0,0,0,0-.01.01.06.05.12.11.17.16ZM17.96,13.08s-.04-.08-.06-.12c-.02.11,0,.15.06.12ZM15.07,14.36c.14.02.15.02.2-.03-.07,0-.13.02-.2.03ZM11.12,9.97c-.09.02-.18.04-.24.11l.24-.11ZM11.69,9.43c.05.03.1.06.15.09-.03-.07-.07-.1-.15-.09ZM12.05,5.74s0-.01-.01-.02c-.03.02-.05.04-.09.06.07.04.08.03.1-.04ZM18.35,13.07s-.06-.07-.09-.11c-.02.05.02.1.09.11ZM18.11,9.97s0,0,0-.01c-.07-.05-.14-.09-.21-.14,0,0,0,0,0,.01.07.05.14.09.21.14ZM10.2,8.85s0,0-.01,0c.06-.06.13-.12.19-.18,0,0,0,0,0,0-.06.06-.12.13-.18.19ZM14.62,11.43s0-.02,0-.03c-.06,0-.12,0-.18-.01h0c.06.02.12.03.18.04ZM16.17,11.69c0,.05.01.11.02.17.03-.07.02-.12-.02-.17ZM10.3,8.64s.01.01.02.02l.12-.11s0,0-.01-.01c-.04.03-.08.07-.13.1ZM13.58,10.32s-.01,0-.02,0c0,.07.02.14.03.2,0,0,.01,0,.02,0,0-.07-.02-.14-.03-.2ZM18.28,12.85s.01.02.02.03c.02-.08.07-.02.1-.05-.03-.01-.06-.02-.09-.02-.01,0-.02.03-.03.04ZM12.67,14.57s0,0,0,.01h.11s-.02-.03-.03-.04c-.03.01-.06.02-.09.03Z"/>
</svg>