<svg width="27" height="27" viewBox="0 0 27 27" fill="none" xmlns="http://www.w3.org/2000/svg">
<g style="mix-blend-mode:luminosity">
<circle cx="13.2622" cy="13.2622" r="13.2622" fill="#D9D9D9"/>
<path d="M7.55062 10.8621L8.09532 11.4068L9.39525 12.7068L10.9743 14.2858L12.3317 15.6433C12.5521 15.8636 12.7687 16.0876 12.9927 16.3042L13.0025 16.314C13.1433 16.4548 13.3807 16.4548 13.5215 16.314L14.0662 15.7693L15.3661 14.4694L16.9451 12.8904L18.3026 11.5329C18.5229 11.3126 18.7469 11.0959 18.9636 10.8719L18.9734 10.8621C19.1092 10.7263 19.119 10.4766 18.9734 10.3432C18.8265 10.2085 18.5988 10.1975 18.4544 10.3432L17.9097 10.8879L16.6098 12.1878L15.0307 13.7668L13.6733 15.1243C13.4529 15.3446 13.2277 15.56 13.0123 15.7852L13.0025 15.795L13.5215 15.795L12.9768 15.2503L11.6769 13.9504L10.0978 12.3714L8.74039 11.0139C8.52006 10.7936 8.3034 10.5696 8.0794 10.3529L8.06961 10.3432C7.93374 10.2073 7.68404 10.1975 7.55062 10.3432C7.41597 10.4888 7.40496 10.7165 7.55062 10.8621Z" fill="black"/>
</g>
</svg>
