<svg width="774" height="882" viewBox="0 0 774 882" fill="none" xmlns="http://www.w3.org/2000/svg">
         <rect width="774" height="882" fill="#D9D9D9" fill-opacity="0.4" />
         <path
            d="M342.098 433.98L343.152 432.469H344.008L344.078 438.785H343.305C342.82 436.848 342.102 435.434 341.148 434.543C340.203 433.652 339.113 433.207 337.879 433.207C336.848 433.207 336.004 433.516 335.348 434.133C334.691 434.75 334.363 435.504 334.363 436.395C334.363 436.949 334.488 437.438 334.738 437.859C334.988 438.273 335.359 438.613 335.852 438.879C336.352 439.137 337.289 439.414 338.664 439.711C340.594 440.133 341.945 440.559 342.719 440.988C343.5 441.418 344.082 441.961 344.465 442.617C344.848 443.266 345.039 444.027 345.039 444.902C345.039 446.465 344.512 447.762 343.457 448.793C342.41 449.816 341.055 450.328 339.391 450.328C337.602 450.328 336.047 449.75 334.727 448.594L333.402 450.211H332.559V443.496H333.402C333.73 445.348 334.465 446.809 335.605 447.879C336.746 448.949 338.031 449.484 339.461 449.484C340.617 449.484 341.559 449.145 342.285 448.465C343.02 447.777 343.387 446.945 343.387 445.969C343.387 445.414 343.25 444.93 342.977 444.516C342.703 444.094 342.27 443.742 341.676 443.461C341.082 443.172 339.914 442.824 338.172 442.418C336.258 441.965 334.953 441.457 334.258 440.895C333.281 440.098 332.793 438.969 332.793 437.508C332.793 435.984 333.277 434.738 334.246 433.77C335.223 432.793 336.469 432.305 337.984 432.305C338.711 432.305 339.402 432.434 340.059 432.691C340.715 432.949 341.395 433.379 342.098 433.98ZM351.039 432.469V448.383C351.039 448.602 351.105 448.77 351.238 448.887C351.434 449.043 351.672 449.121 351.953 449.121H353.113V450H346.902V449.121H348.004C348.363 449.121 348.629 449.035 348.801 448.863C348.98 448.691 349.07 448.449 349.07 448.137V434.777C349.07 434.387 348.965 434.102 348.754 433.922C348.465 433.672 348.109 433.547 347.688 433.547H346.703V432.668L351.039 432.469ZM357.297 432.469C357.648 432.469 357.957 432.602 358.223 432.867C358.488 433.133 358.621 433.445 358.621 433.805C358.621 434.156 358.492 434.461 358.234 434.719C357.977 434.977 357.668 435.105 357.309 435.105C356.949 435.105 356.637 434.977 356.371 434.719C356.113 434.453 355.984 434.145 355.984 433.793C355.984 433.441 356.117 433.133 356.383 432.867C356.648 432.602 356.953 432.469 357.297 432.469ZM354.262 439.02L358.621 438.891V448.336C358.621 448.594 358.684 448.777 358.809 448.887C358.988 449.043 359.215 449.121 359.488 449.121H360.73V450H354.496V449.121H355.656C356 449.121 356.25 449.039 356.406 448.875C356.57 448.703 356.652 448.457 356.652 448.137V441.223C356.652 440.785 356.527 440.457 356.277 440.238C356.027 440.012 355.656 439.898 355.164 439.898H354.262V439.02ZM368.266 432.668L372.555 432.469V447.492C372.555 448.078 372.664 448.496 372.883 448.746C373.109 448.996 373.445 449.121 373.891 449.121H374.652V450H370.902L370.621 447.762C370.176 448.559 369.652 449.16 369.051 449.566C368.457 449.965 367.789 450.164 367.047 450.164C365.797 450.164 364.73 449.641 363.848 448.594C362.973 447.547 362.535 446.164 362.535 444.445C362.535 442.586 363.098 441.102 364.223 439.992C365.105 439.125 366.121 438.691 367.27 438.691C367.973 438.691 368.602 438.867 369.156 439.219C369.719 439.57 370.207 440.102 370.621 440.812V434.613C370.621 434.285 370.492 434.027 370.234 433.84C369.984 433.645 369.59 433.547 369.051 433.547H368.266V432.668ZM367.586 439.664C366.742 439.664 366.07 440.012 365.57 440.707C365.078 441.402 364.832 442.574 364.832 444.223C364.832 446.012 365.086 447.273 365.594 448.008C366.102 448.734 366.754 449.098 367.551 449.098C368.402 449.098 369.129 448.691 369.73 447.879C370.34 447.059 370.645 445.863 370.645 444.293C370.645 442.809 370.32 441.641 369.672 440.789C369.109 440.039 368.414 439.664 367.586 439.664ZM386.125 444.586H378.262C378.301 446.258 378.613 447.438 379.199 448.125C379.871 448.898 380.727 449.285 381.766 449.285C383.297 449.285 384.527 448.414 385.457 446.672L386.219 447C385.078 449.219 383.43 450.328 381.273 450.328C379.805 450.328 378.566 449.797 377.559 448.734C376.559 447.672 376.059 446.312 376.059 444.656C376.059 442.875 376.551 441.438 377.535 440.344C378.527 439.242 379.746 438.691 381.191 438.691C382.254 438.691 383.172 438.965 383.945 439.512C384.719 440.059 385.301 440.844 385.691 441.867C385.965 442.586 386.109 443.492 386.125 444.586ZM378.262 443.754H383.02C383.301 443.754 383.52 443.66 383.676 443.473C383.832 443.277 383.91 442.949 383.91 442.488C383.91 441.629 383.641 440.898 383.102 440.297C382.57 439.695 381.941 439.395 381.215 439.395C380.402 439.395 379.711 439.758 379.141 440.484C378.578 441.211 378.285 442.301 378.262 443.754ZM389.137 445.863C389.621 447.215 390.176 448.152 390.801 448.676C391.434 449.191 392.211 449.449 393.133 449.449C393.984 449.449 394.637 449.266 395.09 448.898C395.551 448.523 395.781 448.051 395.781 447.48C395.781 447.152 395.695 446.867 395.523 446.625C395.359 446.375 395.129 446.191 394.832 446.074C394.535 445.949 393.766 445.77 392.523 445.535C391.336 445.301 390.508 445.055 390.039 444.797C389.57 444.539 389.203 444.184 388.938 443.73C388.68 443.277 388.551 442.785 388.551 442.254C388.551 441.449 388.82 440.719 389.359 440.062C390.055 439.227 391.027 438.809 392.277 438.809C393.23 438.809 394.113 439.109 394.926 439.711L395.699 438.891H396.18L396.484 442.805H395.699C395.355 441.695 394.891 440.898 394.305 440.414C393.719 439.922 392.996 439.676 392.137 439.676C391.395 439.676 390.812 439.859 390.391 440.227C389.969 440.586 389.758 441.027 389.758 441.551C389.758 442.012 389.953 442.395 390.344 442.699C390.727 443.012 391.477 443.258 392.594 443.438C393.891 443.656 394.734 443.84 395.125 443.988C395.766 444.223 396.262 444.586 396.613 445.078C396.965 445.562 397.141 446.156 397.141 446.859C397.141 447.828 396.758 448.648 395.992 449.32C395.234 449.992 394.27 450.328 393.098 450.328C392.012 450.328 391.004 449.969 390.074 449.25L389.219 450.234H388.598L388.363 445.863H389.137ZM398.652 432.668L402.812 432.469V440.93C403.391 440.18 404.012 439.621 404.676 439.254C405.34 438.879 406.043 438.691 406.785 438.691C407.488 438.691 408.121 438.859 408.684 439.195C409.121 439.461 409.492 439.926 409.797 440.59C410.109 441.254 410.266 442.039 410.266 442.945V448.16C410.266 448.496 410.352 448.742 410.523 448.898C410.695 449.047 410.965 449.121 411.332 449.121H412.27V450H406.34V449.121H406.996C407.496 449.121 407.84 449.043 408.027 448.887C408.223 448.723 408.32 448.48 408.32 448.16V442.945C408.32 442.031 408.098 441.32 407.652 440.812C407.215 440.297 406.652 440.039 405.965 440.039C405.426 440.039 404.926 440.184 404.465 440.473C404.004 440.762 403.613 441.203 403.293 441.797C402.973 442.383 402.812 443.004 402.812 443.66V448.043C402.812 448.434 402.895 448.711 403.059 448.875C403.223 449.039 403.492 449.121 403.867 449.121H404.805V450H399.004V449.121H399.66C400.105 449.121 400.422 449.035 400.609 448.863C400.797 448.684 400.891 448.41 400.891 448.043V434.941C400.891 434.473 400.766 434.125 400.516 433.898C400.273 433.664 399.918 433.547 399.449 433.547H398.652V432.668ZM418.785 438.691C420.262 438.691 421.5 439.227 422.5 440.297C423.508 441.359 424.012 442.762 424.012 444.504C424.012 445.707 423.785 446.734 423.332 447.586C422.887 448.43 422.246 449.098 421.41 449.59C420.582 450.082 419.688 450.328 418.727 450.328C417.305 450.328 416.098 449.789 415.105 448.711C414.121 447.633 413.629 446.234 413.629 444.516C413.629 442.789 414.125 441.387 415.117 440.309C416.109 439.23 417.332 438.691 418.785 438.691ZM418.785 439.523C417.91 439.523 417.191 439.922 416.629 440.719C416.066 441.508 415.785 442.758 415.785 444.469C415.785 446.211 416.062 447.484 416.617 448.289C417.18 449.094 417.902 449.496 418.785 449.496C419.699 449.496 420.438 449.094 421 448.289C421.57 447.484 421.855 446.168 421.855 444.34C421.855 442.645 421.574 441.418 421.012 440.66C420.457 439.902 419.715 439.523 418.785 439.523ZM425.441 439.02H430.258V439.828H429.625C429.312 439.828 429.09 439.879 428.957 439.98C428.824 440.074 428.758 440.203 428.758 440.367C428.758 440.539 428.797 440.723 428.875 440.918L431.348 447.129L433.492 441.223C433.195 440.598 432.934 440.211 432.707 440.062C432.48 439.906 432.082 439.828 431.512 439.828V439.02H436.809V439.828H436.363C435.957 439.828 435.676 439.883 435.52 439.992C435.371 440.094 435.297 440.238 435.297 440.426C435.297 440.566 435.332 440.73 435.402 440.918L437.898 447.129L439.879 441.609C440.012 441.242 440.078 440.93 440.078 440.672C440.078 440.414 439.977 440.215 439.773 440.074C439.57 439.934 439.188 439.852 438.625 439.828V439.02H442.902V439.828C442.371 439.914 441.969 440.082 441.695 440.332C441.422 440.574 441.191 440.949 441.004 441.457L437.816 450.328H437.137L434.043 442.629L431.277 450.328H430.598L426.66 440.625C426.535 440.32 426.395 440.117 426.238 440.016C426.082 439.906 425.816 439.844 425.441 439.828V439.02Z"
            fill="black" />
      </svg>