<svg width="14" height="25" viewBox="0 0 14 25" fill="none" xmlns="http://www.w3.org/2000/svg">
<path d="M11.9429 24.774L10.7724 23.6035L7.97887 20.81L4.58563 17.4167L1.66849 14.4996C1.19502 14.0261 0.713649 13.5605 0.248064 13.0792L0.227021 13.0581C-0.0754776 12.7556 -0.0754776 12.2453 0.227021 11.9428L1.39756 10.7723L4.19107 7.97879L7.58431 4.58555L10.5014 1.66841C10.9749 1.19494 11.4405 0.71357 11.9219 0.247986L11.9429 0.226942C12.2349 -0.0650343 12.7715 -0.0860777 13.0582 0.226942C13.3476 0.542593 13.3712 1.03185 13.0582 1.34224L11.8877 2.51278L9.09417 5.30628L5.70093 8.69953L2.78379 11.6167C2.31032 12.0901 1.84736 12.5741 1.36336 13.0371L1.34232 13.0581V11.9428L2.51286 13.1134L5.30636 15.9069L8.69961 19.3001L11.6167 22.2173C12.0902 22.6907 12.5716 23.1563 13.0372 23.6377L13.0582 23.6587C13.3502 23.9507 13.3712 24.4873 13.0582 24.774C12.7452 25.0634 12.2559 25.087 11.9429 24.774Z" fill="black"/>
</svg>
