<svg width="14" height="25" viewBox="0 0 14 25" fill="none" xmlns="http://www.w3.org/2000/svg">
<path d="M2.01851 24.774L3.18905 23.6035L5.98255 20.81L9.3758 17.4167L12.2929 14.4996C12.7664 14.0261 13.2478 13.5605 13.7134 13.0792L13.7344 13.0581C14.0369 12.7556 14.0369 12.2453 13.7344 11.9428L12.5639 10.7723L9.77036 7.97879L6.37712 4.58555L3.45998 1.66841C2.9865 1.19494 2.52092 0.71357 2.03955 0.247986L2.01851 0.226942C1.72653 -0.0650343 1.18993 -0.0860777 0.903212 0.226942C0.613866 0.542593 0.590192 1.03185 0.903212 1.34224L2.07375 2.51278L4.86726 5.30628L8.2605 8.69953L11.1776 11.6167C11.6511 12.0901 12.1141 12.5741 12.5981 13.0371L12.6191 13.0581V11.9428L11.4486 13.1134L8.65506 15.9069L5.26182 19.3001L2.34468 22.2173C1.87121 22.6907 1.38984 23.1563 0.924256 23.6377L0.903212 23.6587C0.611235 23.9507 0.590192 24.4873 0.903212 24.774C1.21623 25.0634 1.70549 25.087 2.01851 24.774Z" fill="white"/>
</svg>
