<svg width="307" height="55" viewBox="0 0 307 55" fill="none" xmlns="http://www.w3.org/2000/svg">
<path d="M189.043 38.6254C184.591 43.0777 175.77 51.5295 171.538 51.5295C170.56 51.5295 169.955 51.1527 169.955 50.2471C169.955 49.1965 171.006 47.8307 173.502 44.7405L188.061 26.5545H183.689L183.656 26.6016L183.609 26.5545L171.314 38.6254C166.561 43.3023 158.033 51.5295 153.809 51.5295C152.83 51.5295 152.454 50.9281 152.454 50.2471C152.454 46.2512 166.861 36.4409 166.861 29.2752C166.861 26.7067 165.354 26.3299 164.22 26.3299C160.449 26.3299 154.414 32.3653 149.661 37.3466L173.201 7.99171H168.828L153.801 26.7719C149.632 30.7243 145.462 34.673 141.288 38.6254C136.159 43.7624 132.612 47.0772 130.123 48.6639C132.54 45.6462 133.67 41.0418 134.423 35.6077C134.648 34.1006 135.105 31.0068 136.007 29.123C138.423 26.6342 142.796 22.6311 142.796 20.6712C142.796 20.222 142.346 19.8452 141.817 19.8452C139.553 19.8452 137.14 24.7504 135.405 28.7463L125.903 36.901L125.845 36.9553L124.244 38.3319C121.74 38.3319 119.871 40.9475 118.896 43.6791C114.575 47.5952 109.546 51.5331 106.659 51.5331C105.681 51.5331 105.076 51.1564 105.076 50.2507C105.076 49.2001 106.134 47.8343 108.622 44.7442L123.182 26.5581H118.81L108.322 39.6869C105.232 43.6103 98.5875 51.5331 94.5156 51.5331C93.5375 51.5331 92.9289 51.0839 92.9289 50.2507C92.9289 48.8197 94.3635 46.9359 96.0987 44.7442L110.666 26.5581H106.286L106.152 26.7248L105.985 26.5581L93.6896 38.629C88.933 43.3059 80.4088 51.5331 76.1847 51.5331C75.1993 51.5331 74.8225 50.9318 74.8225 50.2507C74.8225 46.2548 89.2373 36.4445 89.2373 29.2788C89.2373 26.7103 87.7303 26.3335 86.5964 26.3335C82.8251 26.3335 76.7897 32.369 72.0294 37.3502L95.5734 7.99534H91.1936C85.9805 14.5198 80.7565 21.0444 75.5362 27.5652L64.2514 38.6435C58.9768 43.766 49.699 52.8192 45.7756 52.8192C44.7975 52.8192 43.8882 52.4424 43.8882 51.5367C43.8882 49.4247 47.884 44.8275 49.4744 43.0197C54.452 37.2814 56.2561 35.0969 56.2561 32.4595C56.2561 30.4996 55.6547 28.768 54.2962 27.6341C62.3495 23.6708 72.3627 13.9547 78.0069 9.06403C78.054 9.02418 78.1011 8.98434 78.1446 8.94449C78.9995 8.23806 79.6987 7.70551 80.2276 7.40121C80.637 7.16935 81.2021 6.88678 81.9013 6.65493C82.365 6.49553 82.8795 6.36511 83.4482 6.27092C85.0096 6.03182 86.1544 6.26367 86.3319 5.81445C86.5493 5.27829 85.2197 4.15887 85.0531 4.15887C83.5315 4.15887 80.9449 5.93763 77.7606 8.56772C70.7578 14.4909 61.3279 23.6817 53.8361 27.3298C52.6262 26.5038 51.043 26.0473 48.8585 26.0473C47.8732 26.0473 46.8914 26.127 46.0654 26.3516C52.6225 16.9289 57.9044 10.966 67.4793 3.12278L67.0301 2.82571C66.9033 2.74239 66.3418 3.07568 65.6389 3.57199C64.4724 4.37261 61.6395 6.55349 60.0527 7.54974C48.4347 14.7046 35.4183 20.664 24.4921 20.664C17.1417 20.664 13.7617 17.3854 13.7617 13.5091C13.7617 7.45193 20.8187 0.695555 33.5344 0.695555C39.0953 0.695555 43.2651 2.28955 45.5546 3.8763L46.1487 3.47781C43.6636 1.59037 39.4938 0 33.5344 0C20.518 0 13.0661 6.95199 13.0661 13.5091C13.0661 17.7839 16.7468 21.3595 24.4921 21.3595C33.6323 21.3595 43.3665 17.6861 55.883 10.8283C56.5785 10.4769 57.2777 10.1255 57.9733 9.77408C55.0208 12.5092 52.2856 15.5306 49.536 18.4106C44.8011 23.3665 40.1604 28.413 35.5849 33.521C24.5718 45.8092 17.935 52.0693 10.6968 52.0693C5.19756 52.0693 0.14025 48.8994 0.14025 41.5127C0.14025 41.0707 0.158362 40.6324 0.194589 40.2013C0.0170759 41.2482 -0.671238 45.9505 2.32475 49.5334C5.16858 52.9424 9.56293 53.3517 12.4357 53.3517C23.0648 53.3517 31.513 48.222 41.0914 33.742C42.2942 31.8545 43.5005 30.1229 44.6308 28.4601C45.1597 28.989 46.2176 29.3657 48.2499 29.3657C49.8367 29.3657 51.6444 28.8368 53.5318 28.0108C54.0607 28.5398 54.4375 29.2136 54.4375 30.1229C54.4375 31.7857 53.1551 33.2855 49.0831 38.0385C45.9133 41.7373 42.142 46.3382 42.142 50.0297C42.142 52.0693 43.4969 53.3517 45.7611 53.3517C50.1337 53.3517 59.944 43.6247 64.6137 39.0239L72.7286 31.0575C67.1895 37.9878 61.6431 44.9144 56.0967 51.8447H60.4693C73.1416 35.8504 82.5788 26.9421 86.2703 26.9421C87.2557 26.9421 87.7049 27.3986 87.7049 28.1521C87.7049 29.5831 86.5746 31.0177 84.6075 32.9776C77.5939 39.9984 73.138 44.4471 73.138 48.7472C73.138 50.7144 74.1958 52.0693 76.1629 52.0693C80.6877 52.0693 89.212 43.6899 94.0447 39.013L104.594 28.6629L96.6856 38.5638C93.0593 43.1683 91.2516 45.7295 91.2516 48.5226C91.2516 50.4825 92.3021 52.0693 94.4939 52.0693C97.5841 52.0693 101.507 48.4502 105.206 44.1464C104.076 46.0339 103.471 47.7655 103.471 49.3486C103.471 51.0115 104.601 52.0693 106.634 52.0693C109.586 52.0693 114.325 48.4828 118.545 44.7116C118.255 45.7585 118.103 46.7765 118.103 47.617C118.103 51.2361 120.744 52.0693 122.78 52.0693C128.287 52.0693 132.739 47.7691 141.64 39.013L152.573 28.2862L133.721 51.8447H138.093C150.773 35.8504 160.203 26.9421 163.902 26.9421C164.88 26.9421 165.332 27.3986 165.332 28.1521C165.332 29.5831 164.202 31.0177 162.242 32.9776C155.229 39.9984 150.773 44.4471 150.773 48.7472C150.773 50.7144 151.831 52.0693 153.79 52.0693C158.315 52.0693 166.84 43.6899 171.672 39.013L181.175 29.6881L174.089 38.5638C170.694 42.7843 168.502 45.8817 168.502 48.7472C168.502 50.7144 169.56 52.0693 171.52 52.0693C176.045 52.0693 184.801 43.6175 189.402 39.013L191.137 37.2777L190.768 36.901L189.029 38.6363L189.043 38.6254ZM48.2572 28.8332C46.377 28.8332 45.2467 28.5361 44.9424 28.0072C45.167 27.6305 45.3916 27.2537 45.6959 26.8769C46.377 26.6523 47.4312 26.5726 48.8658 26.5726C50.4489 26.5726 52.1081 26.8769 53.1623 27.6304C51.3546 28.384 49.6954 28.8332 48.2572 28.8332ZM120.987 50.1746C119.784 50.1746 118.65 49.8703 118.65 47.6061C118.65 46.3563 118.976 45.0122 119.299 44.0377C119.617 43.7479 119.929 43.4617 120.237 43.1719C120.798 43.3313 121.479 43.4581 122.045 43.4581C124.91 43.4581 126.12 41.7228 126.12 40.2158C126.12 39.4948 125.769 38.8464 125.015 38.5276L125.968 37.5748L134.869 29.9526C133.963 32.5936 126.874 50.1746 120.987 50.1746Z" fill="white"/>
<path d="M195.514 13.8821C193.55 13.8821 192.268 15.4652 192.268 16.8998C192.268 18.1822 193.097 19.0879 194.38 19.0879C196.343 19.0879 197.626 17.3526 197.626 15.918C197.626 14.7878 196.948 13.8821 195.514 13.8821Z" fill="white"/>
<path d="M293.975 37.2702L293.598 36.8934L291.863 38.6287C283.034 47.4573 275.716 52.8116 272.699 52.8116C271.641 52.8116 271.039 52.2067 271.039 51.301C271.039 50.0946 272.775 47.0769 274.209 45.1895L306.049 2.63703L305.673 2.26027C289.149 13.353 254.745 48.9643 253.31 50.6996C261.686 36.2124 274.738 17.1243 285.226 1.80743L284.773 1.43066C273.532 5.88298 261.005 18.7074 239.051 41.9471C232.487 48.8882 225.169 53.5652 218.905 53.5652C217.735 53.5652 214.906 53.3804 212.239 51.4568C208.149 48.5115 207.486 43.5773 207.359 42.3963C207.385 44.1135 207.704 46.9899 209.573 49.5947C213.279 54.7534 220.267 54.9998 222.524 54.9998C232.182 54.9998 240.859 49.1165 247.952 40.4364C258.288 27.6845 268.775 10.7084 283.791 2.93772C280.922 7.01327 263.646 31.9846 251.499 52.5834L251.951 52.9602C258.74 45.8669 284.396 18.932 303.709 4.29623C293.674 16.291 285.222 25.8731 275.039 39.3822C271.869 43.6063 269.681 47.0769 269.681 50.6235C269.681 53.0363 271.717 53.3406 272.699 53.3406C275.792 53.3406 283.034 48.2108 292.24 39.0055L293.975 37.2702Z" fill="white"/>
<path d="M295.106 46.3235C293.07 46.3235 291.182 48.1349 291.182 49.8701C291.182 51.2287 292.012 52.0583 293.294 52.0583C295.634 52.0583 297.218 49.9462 297.218 48.3631C297.218 47.2328 296.54 46.3271 295.106 46.3271V46.3235Z" fill="white"/>
</svg>
