<svg width="196" height="36" viewBox="0 0 196 36" fill="none" xmlns="http://www.w3.org/2000/svg">
            <path
               d="M121.067 24.7364C118.215 27.5878 112.566 33.0005 109.856 33.0005C109.23 33.0005 108.842 32.7592 108.842 32.1792C108.842 31.5064 109.515 30.6317 111.114 28.6527L120.438 17.006H117.638L117.617 17.0362L117.587 17.006L109.712 24.7364C106.669 27.7316 101.207 33.0005 98.502 33.0005C97.8755 33.0005 97.6343 32.6153 97.6343 32.1792C97.6343 29.6202 106.861 23.3374 106.861 18.7484C106.861 17.1035 105.896 16.8622 105.17 16.8622C102.755 16.8622 98.8894 20.7274 95.8455 23.9175L110.921 5.11804H108.121L98.4973 17.1452C95.8269 19.6764 93.1565 22.2052 90.4838 24.7364C87.1986 28.0263 84.9273 30.1491 83.3334 31.1653C84.8809 29.2327 85.6048 26.2839 86.0873 22.8038C86.2312 21.8387 86.5235 19.8574 87.1012 18.6509C88.6487 17.0571 91.449 14.4934 91.449 13.2382C91.449 12.9506 91.1613 12.7093 90.8226 12.7093C89.3725 12.7093 87.8274 15.8506 86.7161 18.4096L80.6306 23.6321L80.5934 23.6669L79.568 24.5485C77.9648 24.5485 76.7677 26.2236 76.1436 27.9729C73.3758 30.4809 70.1555 33.0028 68.3064 33.0028C67.68 33.0028 67.2926 32.7615 67.2926 32.1815C67.2926 31.5087 67.97 30.634 69.5639 28.655L78.8882 17.0083H76.0879L69.3713 25.4162C67.3923 27.9288 63.1373 33.0028 60.5296 33.0028C59.9032 33.0028 59.5134 32.7151 59.5134 32.1815C59.5134 31.2651 60.4322 30.0586 61.5435 28.655L70.8724 17.0083H68.0675L67.9816 17.1151L67.8749 17.0083L60.0006 24.7388C56.9544 27.7339 51.4953 33.0028 48.7901 33.0028C48.1591 33.0028 47.9178 32.6177 47.9178 32.1815C47.9178 29.6225 57.1493 23.3398 57.1493 18.7507C57.1493 17.1058 56.1841 16.8645 55.458 16.8645C53.0428 16.8645 49.1776 20.7297 46.129 23.9198L61.2071 5.12037H58.4021C55.0635 9.29879 51.718 13.4772 48.3748 17.6533L41.1479 24.748C37.7698 28.0286 31.8282 33.8264 29.3156 33.8264C28.6891 33.8264 28.1068 33.5851 28.1068 33.0051C28.1068 31.6525 30.6658 28.7084 31.6843 27.5507C34.8721 23.8757 36.0275 22.4767 36.0275 20.7877C36.0275 19.5326 35.6424 18.4236 34.7723 17.6974C39.9298 15.1592 46.3425 8.93685 49.9571 5.80478C49.9873 5.77926 50.0174 5.75374 50.0453 5.72822C50.5928 5.27581 51.0406 4.93476 51.3793 4.73987C51.6415 4.59139 52.0034 4.41043 52.4512 4.26194C52.7481 4.15986 53.0776 4.07634 53.4418 4.01602C54.4418 3.86289 55.1749 4.01137 55.2886 3.72369C55.4278 3.38032 54.5763 2.66342 54.4696 2.66342C53.4952 2.66342 51.8387 3.80257 49.7993 5.48693C45.3147 9.28022 39.2756 15.1662 34.4777 17.5025C33.7028 16.9735 32.6889 16.6812 31.2899 16.6812C30.6589 16.6812 30.0301 16.7322 29.5012 16.8761C33.7005 10.8416 37.0831 7.02281 43.215 1.99989L42.9273 1.80964C42.8461 1.75628 42.4865 1.96972 42.0364 2.28757C41.2894 2.8003 39.4751 4.19698 38.4589 4.835C31.0185 9.41711 22.6825 13.2336 15.6852 13.2336C10.9778 13.2336 8.81323 11.134 8.81323 8.65149C8.81323 4.77236 13.3327 0.445447 21.4761 0.445447C25.0374 0.445447 27.7078 1.46627 29.174 2.48246L29.5545 2.22726C27.963 1.01851 25.2926 0 21.4761 0C13.1401 0 8.36778 4.45219 8.36778 8.65149C8.36778 11.3892 10.725 13.679 15.6852 13.679C21.5387 13.679 27.7727 11.3265 35.7885 6.93464C36.234 6.7096 36.6817 6.48455 37.1272 6.25951C35.2363 8.01115 33.4847 9.94608 31.7238 11.7905C28.6915 14.9644 25.7195 18.1962 22.7892 21.4675C15.7363 29.3371 11.4859 33.3462 6.85046 33.3462C3.32862 33.3462 0.089819 31.3161 0.089819 26.5855C0.089819 26.3025 0.101418 26.0218 0.124618 25.7457C0.0109357 26.4162 -0.429874 29.4276 1.48881 31.7221C3.31006 33.9053 6.12428 34.1675 7.96409 34.1675C14.7711 34.1675 20.1815 30.8823 26.3157 21.609C27.086 20.4003 27.8586 19.2913 28.5824 18.2264C28.9212 18.5651 29.5986 18.8064 30.9002 18.8064C31.9163 18.8064 33.0741 18.4676 34.2828 17.9387C34.6215 18.2774 34.8628 18.7089 34.8628 19.2913C34.8628 20.3562 34.0415 21.3167 31.4338 24.3606C29.4037 26.7294 26.9885 29.6758 26.9885 32.04C26.9885 33.3462 27.8563 34.1675 29.3063 34.1675C32.1066 34.1675 38.3893 27.9381 41.3799 24.9916L46.5768 19.8898C43.0294 24.3281 39.4774 28.7641 35.9254 33.2023H38.7257C46.8413 22.9593 52.885 17.2543 55.2492 17.2543C55.8802 17.2543 56.1679 17.5466 56.1679 18.0292C56.1679 18.9456 55.444 19.8643 54.1842 21.1195C49.6926 25.6157 46.839 28.4648 46.839 31.2187C46.839 32.4785 47.5164 33.3462 48.7762 33.3462C51.6739 33.3462 57.133 27.9799 60.228 24.9847L66.984 18.3563L61.9193 24.697C59.5969 27.6458 58.4392 29.2861 58.4392 31.0748C58.4392 32.33 59.112 33.3462 60.5157 33.3462C62.4947 33.3462 65.0073 31.0284 67.3761 28.2722C66.6522 29.481 66.2648 30.5899 66.2648 31.6038C66.2648 32.6687 66.9886 33.3462 68.2902 33.3462C70.181 33.3462 73.2157 31.0493 75.9185 28.6341C75.7329 29.3046 75.6355 29.9566 75.6355 30.4948C75.6355 32.8125 77.3268 33.3462 78.6307 33.3462C82.1572 33.3462 85.0085 30.5923 90.7089 24.9847L97.7108 18.115L85.6372 33.2023H88.4376C96.5577 22.9593 102.597 17.2543 104.966 17.2543C105.592 17.2543 105.882 17.5466 105.882 18.0292C105.882 18.9456 105.158 19.8643 103.903 21.1195C99.4114 25.6157 96.5577 28.4648 96.5577 31.2187C96.5577 32.4785 97.2352 33.3462 98.4904 33.3462C101.388 33.3462 106.847 27.9799 109.942 24.9847L116.028 19.0129L111.49 24.697C109.316 27.3999 107.912 29.3835 107.912 31.2187C107.912 32.4785 108.59 33.3462 109.845 33.3462C112.742 33.3462 118.35 27.9335 121.297 24.9847L122.408 23.8734L122.171 23.6321L121.058 24.7434L121.067 24.7364ZM30.9048 18.4653C29.7007 18.4653 28.9768 18.2751 28.7819 17.9364C28.9258 17.6951 29.0696 17.4538 29.2645 17.2125C29.7007 17.0687 30.3758 17.0176 31.2946 17.0176C32.3084 17.0176 33.371 17.2125 34.0462 17.6951C32.8885 18.1776 31.8259 18.4653 30.9048 18.4653ZM77.4822 32.1328C76.712 32.1328 75.9858 31.9379 75.9858 30.4879C75.9858 29.6874 76.1946 28.8267 76.4011 28.2026C76.6053 28.017 76.8048 27.8337 77.002 27.6481C77.3616 27.7502 77.7978 27.8314 78.1597 27.8314C79.9949 27.8314 80.7698 26.7201 80.7698 25.7549C80.7698 25.2932 80.5447 24.878 80.0621 24.6738L80.6723 24.0636L86.3727 19.1822C85.7927 20.8735 81.2523 32.1328 77.4822 32.1328Z"
               fill="black" />
            <path
               d="M125.21 8.8905C123.953 8.8905 123.132 9.90436 123.132 10.8231C123.132 11.6444 123.663 12.2244 124.484 12.2244C125.742 12.2244 126.563 11.1131 126.563 10.1944C126.563 9.47052 126.129 8.8905 125.21 8.8905Z"
               fill="black" />
            <path
               d="M188.267 23.8688L188.026 23.6275L186.915 24.7388C181.261 30.3928 176.574 33.8219 174.642 33.8219C173.964 33.8219 173.579 33.4344 173.579 32.8544C173.579 32.0818 174.69 30.1492 175.609 28.9405L196 1.68909L195.759 1.4478C185.177 8.55181 163.143 31.358 162.225 32.4693C167.589 23.1914 175.948 10.967 182.664 1.15779L182.374 0.916504C175.175 3.76785 167.152 11.9809 153.093 26.864C148.889 31.3092 144.202 34.3044 140.191 34.3044C139.442 34.3044 137.63 34.1861 135.922 32.9542C133.303 31.068 132.878 27.908 132.797 27.1517C132.813 28.2514 133.017 30.0935 134.215 31.7617C136.588 35.0654 141.063 35.2232 142.509 35.2232C148.694 35.2232 154.251 31.4554 158.793 25.8965C165.412 17.7299 172.129 6.85817 181.746 1.88165C179.908 4.49171 168.844 20.4839 161.065 33.6757L161.355 33.917C165.702 29.3743 182.133 12.1247 194.501 2.75167C188.075 10.4334 182.662 16.5699 176.14 25.2214C174.11 27.9266 172.709 30.1492 172.709 32.4206C172.709 33.9657 174.013 34.1606 174.642 34.1606C176.623 34.1606 181.261 30.8754 187.156 24.9801L188.267 23.8688Z"
               fill="black" />
            <path
               d="M188.991 29.6665C187.687 29.6665 186.479 30.8265 186.479 31.9378C186.479 32.8079 187.01 33.3392 187.831 33.3392C189.33 33.3392 190.344 31.9866 190.344 30.9727C190.344 30.2488 189.91 29.6688 188.991 29.6688V29.6665Z"
               fill="black" />
         </svg>