<svg width="129" height="24" viewBox="0 0 129 24" fill="none" xmlns="http://www.w3.org/2000/svg">
<path d="M79.6817 16.2806C77.8051 18.1573 74.0869 21.7197 72.3034 21.7197C71.8911 21.7197 71.6361 21.5609 71.6361 21.1792C71.6361 20.7363 72.0789 20.1607 73.131 18.8581L79.2679 11.1927H77.4249L77.4111 11.2126L77.3913 11.1927L72.2087 16.2806C70.2053 18.2519 66.6108 21.7197 64.8304 21.7197C64.4181 21.7197 64.2593 21.4662 64.2593 21.1792C64.2593 19.4949 70.3321 15.3598 70.3321 12.3395C70.3321 11.2569 69.6968 11.0981 69.2189 11.0981C67.6293 11.0981 65.0854 13.642 63.082 15.7416L73.0043 3.36851H71.1612L64.8273 11.2844C63.0698 12.9503 61.3122 14.6147 59.5531 16.2806C57.3909 18.4459 55.896 19.843 54.847 20.5119C55.8655 19.2399 56.3419 17.2991 56.6595 15.0086C56.7542 14.3734 56.9466 13.0694 57.3268 12.2754C58.3453 11.2263 60.1884 9.53902 60.1884 8.71292C60.1884 8.52358 59.999 8.36477 59.7761 8.36477C58.8217 8.36477 57.8048 10.4323 57.0733 12.1166L53.0681 15.5538L53.0436 15.5767L52.3687 16.1569C51.3136 16.1569 50.5257 17.2594 50.1149 18.4107C48.2932 20.0614 46.1738 21.7212 44.9568 21.7212C44.5445 21.7212 44.2895 21.5624 44.2895 21.1807C44.2895 20.7379 44.7354 20.1622 45.7844 18.8597L51.9213 11.1943H50.0783L45.6577 16.728C44.3552 18.3817 41.5547 21.7212 39.8384 21.7212C39.4261 21.7212 39.1695 21.5319 39.1695 21.1807C39.1695 20.5775 39.7742 19.7835 40.5056 18.8597L46.6456 11.1943H44.7995L44.743 11.2645L44.6728 11.1943L39.4902 16.2821C37.4853 18.2535 33.8923 21.7212 32.1119 21.7212C31.6965 21.7212 31.5377 21.4678 31.5377 21.1807C31.5377 19.4964 37.6136 15.3614 37.6136 12.341C37.6136 11.2584 36.9783 11.0996 36.5004 11.0996C34.9108 11.0996 32.3669 13.6435 30.3604 15.7431L40.2842 3.37004H38.4381C36.2408 6.12012 34.0389 8.8702 31.8385 11.6188L27.082 16.2883C24.8587 18.4474 20.9481 22.2633 19.2944 22.2633C18.8821 22.2633 18.4989 22.1045 18.4989 21.7228C18.4989 20.8325 20.1831 18.8948 20.8535 18.1328C22.9515 15.7141 23.712 14.7933 23.712 13.6817C23.712 12.8556 23.4585 12.1257 22.8859 11.6478C26.2803 9.97726 30.5009 5.88191 32.8799 3.82049C32.8998 3.80369 32.9196 3.7869 32.938 3.7701C33.2983 3.47234 33.593 3.24788 33.816 3.11961C33.9885 3.02188 34.2267 2.90278 34.5214 2.80505C34.7169 2.73787 34.9337 2.6829 35.1735 2.64319C35.8316 2.54241 36.3141 2.64014 36.3889 2.45079C36.4805 2.2248 35.9201 1.75297 35.8499 1.75297C35.2086 1.75297 34.1183 2.50271 32.7761 3.6113C29.8245 6.1079 25.8497 9.98184 22.6919 11.5195C22.1819 11.1714 21.5147 10.979 20.5939 10.979C20.1785 10.979 19.7647 11.0125 19.4166 11.1072C22.1804 7.13556 24.4067 4.62215 28.4425 1.31625L28.2532 1.19104C28.1998 1.15592 27.9631 1.2964 27.6668 1.5056C27.1752 1.84306 25.9811 2.7623 25.3122 3.18222C20.4152 6.19799 14.9288 8.70987 10.3234 8.70987C7.22521 8.70987 5.80054 7.32796 5.80054 5.69409C5.80054 3.14099 8.77509 0.293177 14.1348 0.293177C16.4787 0.293177 18.2362 0.965046 19.2013 1.63386L19.4517 1.4659C18.4042 0.670343 16.6467 0 14.1348 0C8.64835 0 5.50737 2.93027 5.50737 5.69409C5.50737 7.49593 7.05877 9.00305 10.3234 9.00305C14.176 9.00305 18.279 7.45469 23.5547 4.56413C23.8479 4.41601 24.1426 4.26789 24.4358 4.11978C23.1913 5.27264 22.0384 6.54615 20.8794 7.76009C18.8837 9.84899 16.9276 11.9761 14.999 14.1291C10.357 19.3086 7.55962 21.9472 4.50872 21.9472C2.19077 21.9472 0.0591156 20.6111 0.0591156 17.4976C0.0591156 17.3113 0.0667495 17.1266 0.0820193 16.9449C0.00719748 17.3861 -0.282927 19.3682 0.979882 20.8783C2.17856 22.3152 4.03078 22.4878 5.24167 22.4878C9.72182 22.4878 13.2827 20.3256 17.32 14.2222C17.827 13.4267 18.3355 12.6968 18.8119 11.9959C19.0348 12.2189 19.4807 12.3777 20.3374 12.3777C21.0062 12.3777 21.7681 12.1547 22.5637 11.8066C22.7866 12.0295 22.9454 12.3135 22.9454 12.6968C22.9454 13.3977 22.4049 14.0298 20.6886 16.0332C19.3525 17.5923 17.7629 19.5315 17.7629 21.0875C17.7629 21.9472 18.334 22.4878 19.2883 22.4878C21.1314 22.4878 25.2664 18.3878 27.2347 16.4486L30.6551 13.0908C28.3204 16.0119 25.9826 18.9314 23.6448 21.8526H25.4878C30.8292 15.111 34.807 11.3561 36.363 11.3561C36.7783 11.3561 36.9676 11.5485 36.9676 11.8661C36.9676 12.4693 36.4912 13.074 35.6621 13.9001C32.7059 16.8593 30.8277 18.7345 30.8277 20.547C30.8277 21.3761 31.2736 21.9472 32.1027 21.9472C34.0099 21.9472 37.6029 18.4153 39.6399 16.444L44.0864 12.0814L40.753 16.2547C39.2245 18.1954 38.4626 19.275 38.4626 20.4523C38.4626 21.2784 38.9054 21.9472 39.8292 21.9472C41.1317 21.9472 42.7854 20.4218 44.3445 18.6077C43.868 19.4033 43.613 20.1332 43.613 20.8005C43.613 21.5013 44.0895 21.9472 44.9461 21.9472C46.1906 21.9472 48.1879 20.4355 49.9668 18.8459C49.8446 19.2872 49.7805 19.7163 49.7805 20.0706C49.7805 21.596 50.8937 21.9472 51.7518 21.9472C54.0728 21.9472 55.9495 20.1347 59.7013 16.444L64.3097 11.9226L56.3633 21.8526H58.2064C63.5508 15.111 67.5255 11.3561 69.0845 11.3561C69.4968 11.3561 69.6877 11.5485 69.6877 11.8661C69.6877 12.4693 69.2113 13.074 68.3852 13.9001C65.4289 16.8593 63.5508 18.7345 63.5508 20.547C63.5508 21.3761 63.9966 21.9472 64.8227 21.9472C66.7299 21.9472 70.3229 18.4153 72.3599 16.444L76.3652 12.5136L73.3784 16.2547C71.9476 18.0336 71.0238 19.3391 71.0238 20.547C71.0238 21.3761 71.4697 21.9472 72.2958 21.9472C74.2029 21.9472 77.8937 18.3848 79.8329 16.444L80.5643 15.7126L80.4086 15.5538L79.6756 16.2852L79.6817 16.2806ZM20.3404 12.1532C19.5479 12.1532 19.0715 12.028 18.9432 11.805C19.0379 11.6462 19.1326 11.4874 19.2608 11.3286C19.5479 11.234 19.9923 11.2004 20.5969 11.2004C21.2642 11.2004 21.9636 11.3286 22.4079 11.6462C21.646 11.9639 20.9466 12.1532 20.3404 12.1532ZM50.996 21.1486C50.489 21.1486 50.0111 21.0203 50.0111 20.066C50.0111 19.5392 50.1485 18.9727 50.2844 18.5619C50.4188 18.4398 50.5501 18.3191 50.6799 18.197C50.9166 18.2642 51.2036 18.3176 51.4419 18.3176C52.6497 18.3176 53.1597 17.5862 53.1597 16.951C53.1597 16.6471 53.0116 16.3738 52.694 16.2394L53.0956 15.8378L56.8473 12.625C56.4656 13.7382 53.4773 21.1486 50.996 21.1486Z" fill="black"/>
<path d="M82.4089 5.85144C81.5813 5.85144 81.0408 6.51873 81.0408 7.12341C81.0408 7.66396 81.3905 8.0457 81.931 8.0457C82.7586 8.0457 83.2992 7.31428 83.2992 6.7096C83.2992 6.23318 83.0136 5.85144 82.4089 5.85144Z" fill="black"/>
<path d="M123.911 15.7095L123.752 15.5507L123.02 16.2821C119.299 20.0034 116.215 22.2602 114.943 22.2602C114.497 22.2602 114.243 22.0052 114.243 21.6235C114.243 21.115 114.975 19.843 115.579 19.0475L129 1.11163L128.841 0.952828C121.877 5.62843 107.375 20.6386 106.77 21.37C110.301 15.2636 115.802 7.21801 120.223 0.761956L120.032 0.603149C115.294 2.4798 110.014 7.8853 100.76 17.6808C97.9932 20.6065 94.9087 22.5779 92.2686 22.5779C91.7754 22.5779 90.5828 22.5 89.4589 21.6892C87.735 20.4477 87.4555 18.368 87.4021 17.8702C87.4128 18.594 87.5472 19.8064 88.3351 20.9043C89.8972 23.0787 92.8427 23.1825 93.794 23.1825C97.8649 23.1825 101.522 20.7027 104.512 17.0441C108.868 11.6691 113.289 4.51373 119.618 1.23837C118.409 2.95622 111.127 13.4817 106.007 22.164L106.198 22.3228C109.059 19.333 119.873 7.97997 128.014 1.81099C123.784 6.8668 120.221 10.9057 115.929 16.5997C114.593 18.3802 113.671 19.843 113.671 21.338C113.671 22.3549 114.529 22.4832 114.943 22.4832C116.247 22.4832 119.299 20.321 123.179 16.4409L123.911 15.7095Z" fill="black"/>
<path d="M124.387 19.5254C123.529 19.5254 122.733 20.2889 122.733 21.0203C122.733 21.5929 123.083 21.9426 123.624 21.9426C124.61 21.9426 125.277 21.0524 125.277 20.3851C125.277 19.9087 124.992 19.5269 124.387 19.5269V19.5254Z" fill="black"/>
</svg>
