<svg width="48" height="48" viewBox="0 0 48 48" fill="none" xmlns="http://www.w3.org/2000/svg">
<path d="M47.88 34.7004C43.4 42.9103 34.82 48.0003 25.49 48.0003C11.43 48.0003 0 36.5704 0 22.5104C0 13.1803 5.09003 4.60032 13.3 0.120339C13.69 -0.0896834 14.17 -0.019676 14.48 0.290321C14.8 0.610329 14.87 1.09031 14.65 1.48032C12.76 4.92033 11.77 8.81034 11.77 12.7503C11.77 25.7004 22.3 36.2303 35.25 36.2303C39.19 36.2303 43.08 35.2403 46.52 33.3503C46.91 33.1303 47.39 33.2004 47.71 33.5203C48.02 33.8303 48.09 34.3103 47.88 34.7004Z" fill="black"/>
</svg>
