<svg width="27" height="27" viewBox="0 0 27 27" fill="none" xmlns="http://www.w3.org/2000/svg">
<g style="mix-blend-mode:luminosity">
<circle cx="13.2622" cy="13.2622" r="13.2622" transform="matrix(1 0 0 -1 0 26.5244)" fill="#D9D9D9"/>
<path d="M7.55062 15.6623L8.09532 15.1176L9.39525 13.8176L10.9743 12.2386L12.3317 10.8812C12.5521 10.6608 12.7687 10.4368 12.9927 10.2202L13.0025 10.2104C13.1433 10.0696 13.3807 10.0696 13.5215 10.2104L14.0662 10.7551L15.3661 12.055L16.9451 13.634L18.3026 14.9915C18.5229 15.2118 18.7469 15.4285 18.9636 15.6525L18.9734 15.6623C19.1092 15.7981 19.119 16.0478 18.9734 16.1813C18.8265 16.3159 18.5988 16.3269 18.4544 16.1813L17.9097 15.6366L16.6098 14.3366L15.0307 12.7576L13.6733 11.4002C13.4529 11.1798 13.2277 10.9644 13.0123 10.7392L13.0025 10.7294L13.5215 10.7294L12.9768 11.2741L11.6769 12.574L10.0978 14.153L8.74039 15.5105C8.52006 15.7308 8.3034 15.9548 8.0794 16.1715L8.06961 16.1813C7.93374 16.3171 7.68404 16.3269 7.55062 16.1813C7.41597 16.0356 7.40496 15.8079 7.55062 15.6623Z" fill="black"/>
</g>
</svg>
